<?xml version="1.0" standalone="no"?>
<!DOCTYPE svg PUBLIC "-//W3C//DTD SVG 20010904//EN"
 "http://www.w3.org/TR/2001/REC-SVG-20010904/DTD/svg10.dtd">
<svg version="1.0" xmlns="http://www.w3.org/2000/svg"
 width="794.000000pt" height="794.000000pt" viewBox="0 0 794.000000 794.000000"
 preserveAspectRatio="xMidYMid meet">
<metadata>
Created by potrace 1.15, written by Peter Selinger 2001-2017
</metadata>
<g transform="translate(0.000000,794.000000) scale(0.100000,-0.100000)"
fill="#000000" stroke="none">
<path d="M3722 7210 c-136 -10 -271 -26 -278 -32 -2 -3 12 -99 32 -214 19
-115 38 -225 41 -244 3 -19 48 -289 100 -600 52 -311 101 -603 108 -650 26
-162 55 -335 64 -385 5 -27 17 -100 27 -162 9 -61 20 -116 23 -122 4 -6 20 -7
46 -1 22 5 57 10 78 10 l37 0 0 -110 c0 -122 0 -122 -77 -134 -24 -3 -68 -17
-100 -31 -31 -14 -58 -23 -60 -21 -3 2 -33 44 -68 92 l-64 88 32 19 c18 11 47
26 65 34 18 7 31 17 29 21 -3 4 -113 228 -245 497 -132 270 -353 720 -492
1000 -138 281 -267 545 -287 588 -20 42 -42 77 -48 77 -15 0 -261 -146 -370
-220 -171 -115 -391 -289 -548 -432 l-58 -53 273 -270 c579 -574 1440 -1420
1447 -1423 4 -1 30 20 58 48 28 27 54 50 59 50 5 -1 22 -20 39 -43 16 -23 45
-63 63 -89 l34 -46 -46 -57 c-25 -30 -55 -74 -66 -95 -12 -23 -28 -40 -38 -40
-32 0 -202 62 -202 73 0 7 14 36 30 66 17 30 29 55 28 56 -2 1 -95 51 -208
110 -337 177 -561 295 -635 335 -38 21 -248 131 -465 245 -217 115 -492 259
-610 322 -118 62 -217 113 -221 113 -20 0 -178 -393 -244 -605 -65 -210 -143
-531 -131 -542 2 -2 61 -12 132 -23 71 -11 203 -30 294 -44 91 -14 273 -41
405 -61 132 -19 312 -46 400 -60 88 -13 221 -33 295 -44 74 -11 198 -30 275
-41 77 -11 201 -30 275 -41 74 -11 173 -26 219 -34 46 -8 87 -13 91 -10 4 2
11 31 15 62 12 99 5 96 125 58 l105 -34 0 -125 0 -124 -103 -33 c-113 -35
-122 -33 -122 22 0 15 -3 41 -6 58 -6 27 -11 32 -28 27 -12 -3 -120 -19 -241
-36 -121 -17 -265 -38 -320 -46 -146 -21 -1172 -169 -1512 -218 -161 -23 -294
-44 -297 -46 -5 -6 24 -157 55 -280 57 -228 163 -538 254 -742 30 -66 56 -122
58 -125 3 -2 114 53 248 123 134 69 469 243 744 386 275 143 545 284 600 313
55 29 197 102 315 164 118 61 221 115 228 120 11 6 6 23 -22 79 l-36 71 112
35 c62 20 113 34 113 33 45 -78 65 -108 97 -142 21 -23 38 -46 38 -50 0 -6
-97 -147 -127 -184 -2 -3 -27 18 -56 47 l-52 51 -105 -102 c-254 -248 -1186
-1153 -1395 -1356 -126 -123 -230 -226 -230 -230 0 -17 238 -223 399 -345 151
-114 544 -366 571 -366 6 0 1087 2161 1083 2165 -2 1 -28 15 -58 30 -30 15
-60 32 -67 37 -17 14 114 192 136 184 80 -27 171 -56 194 -61 l27 -5 0 -115
c0 -131 5 -124 -90 -104 -28 6 -53 9 -56 7 -2 -3 -15 -71 -29 -151 -30 -175
-67 -389 -94 -547 -11 -63 -34 -196 -51 -295 -17 -99 -44 -256 -61 -350 -16
-93 -47 -273 -69 -400 -21 -126 -55 -322 -75 -435 -19 -113 -35 -206 -35 -206
0 -1 48 -7 108 -13 299 -32 508 -38 762 -21 217 14 340 30 340 44 0 6 -39 241
-86 521 -47 281 -93 560 -103 620 -10 61 -60 363 -112 673 l-94 563 -30 -5
c-16 -3 -52 -8 -78 -12 l-48 -6 3 117 3 118 61 13 c34 7 83 23 110 37 l49 25
68 -93 c37 -51 67 -95 67 -97 0 -2 -27 -17 -60 -33 -33 -16 -60 -33 -60 -37 0
-5 116 -246 259 -536 142 -290 379 -772 526 -1072 147 -300 271 -549 275 -554
15 -16 331 178 535 328 115 85 302 238 395 324 l55 51 -175 173 c-463 456
-1318 1297 -1430 1405 l-124 121 -39 -44 c-67 -76 -66 -76 -141 26 l-66 90 49
60 c38 48 70 98 87 138 3 5 224 -69 224 -75 0 -3 -14 -32 -32 -64 -18 -32 -30
-60 -28 -62 3 -3 255 -136 560 -297 305 -161 784 -414 1064 -561 280 -148 510
-269 511 -269 14 0 155 343 213 517 83 247 174 616 156 632 -5 5 -79 18 -164
30 -163 24 -296 43 -570 85 -91 13 -214 32 -275 41 -60 9 -166 25 -235 36 -69
11 -177 26 -240 35 -63 8 -122 17 -130 19 -8 2 -64 11 -125 20 -60 8 -137 20
-170 25 -199 33 -467 70 -474 66 -5 -3 -11 -33 -14 -67 -3 -34 -10 -66 -15
-71 -7 -7 -46 1 -113 22 l-104 33 0 123 0 124 105 33 c72 23 107 30 112 23 4
-6 10 -37 14 -69 l7 -59 56 7 c31 3 198 27 371 52 173 25 376 53 450 64 74 10
322 46 550 79 228 33 530 76 670 96 338 47 303 37 295 87 -12 78 -85 371 -121
487 -65 209 -221 601 -245 616 -5 3 -78 -30 -162 -74 -83 -44 -323 -168 -532
-277 -209 -108 -429 -223 -490 -255 -60 -31 -173 -90 -250 -130 -77 -40 -180
-94 -230 -120 -49 -26 -179 -93 -287 -149 l-198 -102 36 -71 c19 -38 34 -71
32 -73 -2 -1 -51 -18 -110 -38 l-107 -35 -29 51 c-16 29 -48 73 -71 99 l-42
47 63 90 c35 50 68 90 75 91 6 0 31 -22 55 -49 l45 -50 309 302 c171 166 465
453 654 637 765 742 773 750 758 767 -28 35 -262 234 -370 315 -122 92 -307
219 -403 276 -117 69 -177 102 -186 102 -5 0 -252 -486 -549 -1080 l-540
-1080 70 -35 c39 -19 70 -37 70 -40 0 -6 -131 -185 -135 -185 -1 0 -27 11 -56
24 -30 13 -80 29 -112 35 l-57 12 0 118 0 119 68 -13 c37 -7 68 -12 70 -10 3
3 29 137 37 195 3 25 8 52 10 60 2 8 27 150 56 315 28 165 71 415 95 555 25
140 60 345 79 455 55 324 83 482 105 610 37 210 38 193 -1 199 -169 28 -669
42 -897 26z m403 -3033 c114 -64 107 -230 -13 -288 -88 -43 -195 10 -222 111
-36 134 112 246 235 177z"/>
</g>
</svg>
