<?xml version="1.0" standalone="no"?>
<!DOCTYPE svg PUBLIC "-//W3C//DTD SVG 20010904//EN"
 "http://www.w3.org/TR/2001/REC-SVG-20010904/DTD/svg10.dtd">
<svg version="1.0" xmlns="http://www.w3.org/2000/svg"
 width="225.000000pt" height="225.000000pt" viewBox="0 0 225.000000 225.000000"
 preserveAspectRatio="xMidYMid meet">
<metadata>
Created by potrace 1.15, written by Peter Selinger 2001-2017
</metadata>
<g transform="translate(0.000000,225.000000) scale(0.100000,-0.100000)"
fill="#000000" stroke="none">
<path d="M987 2063 c-15 -4 -17 -11 -11 -49 5 -33 3 -45 -7 -48 -8 -2 -44 -14
-81 -26 -38 -11 -72 -19 -77 -16 -4 3 -14 19 -21 36 -7 16 -18 30 -25 30 -18
0 -149 -89 -205 -139 l-45 -40 34 -31 34 -30 -40 -52 c-22 -29 -46 -63 -52
-76 l-12 -22 -39 20 c-22 11 -41 20 -43 20 -14 0 -97 -247 -97 -286 0 -9 11
-14 29 -14 58 0 61 -5 61 -100 l0 -88 -45 -6 c-25 -4 -45 -10 -45 -14 1 -43
83 -292 96 -292 3 0 15 6 27 14 42 27 52 23 106 -48 l52 -69 -31 -33 -32 -32
33 -31 c54 -50 210 -152 221 -145 5 4 17 22 24 41 9 20 20 32 27 29 7 -3 45
-15 85 -28 l73 -23 -6 -46 -7 -46 80 -7 c43 -4 114 -4 156 0 l77 7 -6 46 -6
46 73 23 c40 13 79 26 86 28 7 4 18 -8 27 -29 8 -20 19 -38 24 -41 10 -7 162
93 221 144 l34 30 -33 34 -32 33 52 69 c28 38 53 71 55 73 2 2 19 -6 39 -18
20 -11 38 -21 40 -21 12 0 95 252 95 288 0 6 -20 14 -45 18 l-45 6 0 88 c0 95
3 100 61 100 18 0 29 5 29 14 0 39 -83 286 -97 286 -2 0 -21 -9 -43 -20 l-38
-20 -20 33 c-11 17 -34 51 -51 74 l-32 41 33 32 33 31 -45 40 c-53 47 -189
139 -206 139 -6 0 -17 -14 -24 -30 -7 -17 -17 -33 -21 -36 -5 -3 -39 5 -77 16
-37 12 -73 24 -81 26 -10 3 -12 15 -7 48 6 39 5 44 -16 50 -26 7 -244 6 -271
-1z m3 -129 c0 -3 18 -113 40 -244 22 -131 40 -242 40 -245 0 -4 9 -5 20 -2
17 4 20 0 20 -28 0 -29 -4 -34 -31 -40 -23 -5 -34 -3 -44 12 -18 23 -18 32 -1
39 10 4 -14 62 -96 231 -68 141 -106 229 -100 235 10 10 118 47 140 47 6 1 12
-2 12 -5z m356 -14 c32 -11 62 -24 67 -29 5 -5 -42 -109 -103 -231 -95 -190
-109 -225 -96 -232 19 -11 20 -17 1 -41 -10 -15 -21 -17 -44 -12 -27 6 -31 11
-31 40 0 27 3 32 18 29 15 -5 21 15 46 163 50 297 58 333 71 333 6 0 38 -9 71
-20z m348 -252 c25 -34 46 -67 46 -72 0 -6 -30 -27 -68 -46 -367 -190 -372
-193 -366 -216 4 -17 0 -23 -21 -28 -15 -4 -28 -6 -29 -4 -1 2 -9 13 -19 25
-18 20 -18 23 -2 47 14 21 21 24 31 15 18 -15 55 16 234 195 80 80 145 146
146 146 1 0 23 -28 48 -62z m-904 -123 c159 -159 177 -174 191 -159 14 14 18
13 33 -11 17 -25 17 -28 -1 -48 -10 -12 -18 -23 -19 -25 -1 -2 -14 0 -29 4
-22 5 -25 11 -21 30 4 14 1 24 -6 26 -35 9 -428 224 -428 234 0 16 81 124 94
124 5 0 89 -79 186 -175z m-120 -255 c113 -16 215 -32 228 -35 15 -4 22 -1 22
9 0 21 15 27 41 18 16 -6 22 -17 23 -40 1 -26 -4 -34 -27 -42 -25 -8 -30 -7
-34 10 -4 14 -11 18 -27 15 -11 -3 -122 -19 -245 -36 -252 -36 -241 -38 -241
46 0 75 8 96 34 90 11 -3 113 -19 226 -35z m1164 18 c9 -34 7 -121 -3 -136 -7
-11 -46 -8 -222 18 -118 17 -228 33 -245 36 -26 5 -32 2 -37 -15 -4 -18 -9
-19 -34 -11 -23 9 -28 16 -27 42 1 41 39 62 60 34 12 -17 22 -17 251 17 131
19 241 35 244 36 4 0 9 -9 13 -21z m-819 -154 c16 -25 16 -27 -3 -47 -15 -15
-24 -18 -34 -10 -10 8 -56 -31 -193 -163 l-180 -174 -35 39 c-19 21 -42 52
-52 67 l-16 29 221 116 c179 93 222 119 220 134 -4 41 47 47 72 9z m282 18 c6
-4 11 -15 10 -25 -2 -13 37 -38 153 -99 85 -44 185 -97 222 -118 l67 -36 -26
-40 c-14 -21 -37 -51 -51 -66 l-25 -27 -180 175 c-148 144 -182 172 -194 163
-11 -10 -18 -8 -35 8 -19 20 -19 22 -3 47 17 26 39 32 62 18z m-212 -64 c31
-14 37 -68 7 -68 -15 0 -22 -23 -45 -162 -16 -90 -35 -202 -44 -249 l-15 -87
-37 10 c-58 14 -121 39 -121 47 0 4 49 106 110 227 97 194 107 220 93 231 -14
11 -14 14 1 38 19 29 17 29 51 13z m130 -44 c-14 -11 -3 -37 97 -238 95 -190
111 -228 98 -236 -17 -11 -142 -52 -145 -48 -2 2 -19 102 -39 223 -48 292 -44
275 -67 275 -14 0 -19 7 -19 29 0 23 6 31 28 39 22 8 30 6 45 -11 17 -19 17
-22 2 -33z"/>
</g>
</svg>
